# xmcd
#
# Track frame offsets:
#	150
#	3789
#	22934
#	40379
#	56435
#	61276
#	77496
#	100900
#	119303
#	130956
#	147851
#	169156
#	187141
#	205447
#	224150
#
# Disc length: 3290 seconds
#
# Revision: 1
# Processed by: cddbd v1.5.2PL0 Copyright (c) Steve Scherf et al.
# Submitted via: EasyCDDAExtractor 10.0.2.1
#
DISCID=d60cd80f
DTITLE=The ARq - Start
DYEAR=2007
DGENRE=R&B
TTITLE0=Intro
TTITLE1=Crazy
TTITLE2=Fire feat. Skuntdunna
TTITLE3=Lose Your Head
TTITLE4=Interlude
TTITLE5=Adore You
TTITLE6=Lights Off
TTITLE7=Heartbeat
TTITLE8=Still Beating
TTITLE9=Remarkable
TTITLE10=Show Up
TTITLE11=If This Ain't Heaven
TTITLE12=Broken Heart
TTITLE13=Go
TTITLE14=Luv Like U
EXTD=
EXTT0=
EXTT1=
EXTT2=
EXTT3=
EXTT4=
EXTT5=
EXTT6=
EXTT7=
EXTT8=
EXTT9=
EXTT10=
EXTT11=
EXTT12=
EXTT13=
EXTT14=
PLAYORDER=
